<mxfile host="app.diagrams.net" modified="2022-05-10T13:50:25.494Z" agent="5.0 (Windows NT 10.0; Win64; x64) AppleWebKit/537.36 (KHTML, like Gecko) Chrome/101.0.4951.54 Safari/537.36" etag="BzXaMdMs9xUnGjXix0CH" version="18.0.2" type="github">
  <diagram id="6qQs_PiQPN3gfMk3PD7P" name="第 1 页">
    <mxGraphModel dx="1422" dy="1867" grid="1" gridSize="10" guides="1" tooltips="1" connect="1" arrows="1" fold="1" page="1" pageScale="1" pageWidth="827" pageHeight="1169" math="0" shadow="0">
      <root>
        <mxCell id="0" />
        <mxCell id="1" parent="0" />
        <mxCell id="-l3vhbfFlr9UJ3xe28LL-1" value="" style="shape=image;verticalLabelPosition=bottom;labelBackgroundColor=default;verticalAlign=top;aspect=fixed;imageAspect=0;image=data:image/png,iVBORw0KGgoAAAANSUhEUgAAATUAAACzCAMAAADfX3tHAAAAAXNSR0IArs4c6QAAAARnQU1BAACxjwv8YQUAAAGkUExURf///8TExAAAAEdHR+zs7NjY2C8vL4KCgmdnZ/b29qSkpEZGRrq6urCwsM/Pz5mZmZqamlhYWHV1de3t7czMzMXFxVJSUp2dnWhoaCYmJq2trVdXV46Ojv7+/qCgoPf394CAgP39/Z+fn4GBgfn5+fLy8u/v7+7u7vj4+PDw8PX19enp6dra2oWFhfPz8+Xl5efn54eHh/T09IODg+Li4oaGhtTU1MjIyIuLi+Tk5ImJiYqKisvLy9nZ2d/f34iIiN3d3ZCQkPr6+vv7++jo6ISEhOrq6r+/v7a2tpSUlNvb2/Hx8ZKSkpWVlcHBwdfX142Njfz8/Nzc3OHh4cbGxqqqqtLS0rm5uZubm9HR0Y+Pj5OTk76+vpGRkaampri4uM7OzqioqK6ursnJyZaWluPj46urq5ycnMPDw7GxscfHx7u7u9XV1bOzs8DAwIyMjKenp5eXl5iYmMrKyp6ens3Nzd7e3rW1tdPT06+vr6ysrKKiotDQ0MLCwqmpqaOjo7Kysry8vKGhoaWlpbS0tLe3t729veDg4Ovr6+bm5tbW1gAAAJFItesAAACMdFJOU/////////////////////////////////////////////////////////////////////////////////////////////////////////////////////////////////////////////////////////////////////////////////////////8AcRYuAwAAAAlwSFlzAAAOwwAADsMBx2+oZAAAD1BJREFUeF7tnVGSsrAShS0fpqzygSqKF2sWwDJgE6yC/b/f73QH7Tg6ovc3d+Ll/P+MAfp0Tro7AR3U3YYNGzZs2LAO3b5LrQ0XdPv9sU/tW+j2c2otGE8xjuNpvz+NaeMK7SE1psWiP941rgrzrzHj+I9ay6pv0kY/pK0rHJaofV8MxuMnRK17ELWftZbtObSpcQuHg/uO1Tl+fUytUT5tmmiacV4ik+2xWmv3FAsWtPsDDzzOvnW8VNG3eyComOBCFu5KM1U8bXxQrbG4EZsDzZ7a6Y8qIG3tJqusaT/tdgPbVmY2QzsFaFIsUuH1mo5avzrFbjyZC4sZ/hrahHeE+EG1NissPjphYl+jsABqzY5azfUa+6xAtaIBlndvmb08uC/FmED6IQLVnbQXfFStWcUoJqBVtSznv27ffKluPEzDd6q1ab8saExkBcfrCg/uS4HfHbD2ncQzZeGjao1A2CTTstZpoi3LPKuTx0urlLXdmO201hO3Y+/LnZYuP6zSs0m7OJdjhfNDau2LsS+11vpAJ855aU3SoaPCdr72WowtWNawPalOl8N2heYztE3RZTIzSz+j1myG+lrUnTo/EbSMLKxr44mI2fK/7EmNZRfEXbOEMNUaLjwF47KiKSufUmvpyoNx90cGqVV8siuIo4rQz6GdFjE7pw7U0XjipNHoIBPTYmBL/1GL2EHn0HOttTpqK9xuJHT98XNqTcHhtHj0yymm0X7wJ0CsVDxa6czLymVVxvo/y07h0KOfGNQSz2vNXLDr0KfnBQ12KrrPO4e+A9euP+4c+g6k8+gFH1Jr+/1X/8Zay8GczV4xqRrvq7XPRLfhdxybruM8ONFMIQOxxv6bevtUbvPd7ebDrtMVa9oFIvMvq7+HN3PHtpntIrXtonlk/mH1d/Febn8YJ6LGWZ+fYB6Zf1f9fbyXS4U13Ra1DA+5ep2GEwGx27V9NI/Mtyr4BX+aS611LSeELWoJq7isa7vBnnIH88j80+rvoCA3mEdmJeozFOQG88isRH2GgtxgHpmVqM9QkBvMI7MS9RkKcoN5ZFaiPkNBbjCPzErUZyjIDeaRWYn6DAW5wTwyK1GfoSA3mEdmJeozFOQG88isRH2GgtxgHpmVqM9QkBvMI7MS9RkKcoN5ZFaiPkNBbjCPzErUZyjIDeaRWYn6DAW5wTwyK1Gf4c3c1m4V8N/BPDJXeLmLz+SO9vJ3p7+Hbq+AJ6ziTtOunf3GvLQHROafVn8Hb+a2e93huP1lL2AVdxp2A4b8BPPIfLuCO3gvN72H4gZW9du3+lvyrs3MIzPzcr+zm1il4A7+Cfeu3rZPDZAbPe53Gnfz8Pjvoe6W33pn0DN4rOA+/gW3j8GJiAO5Mnrcb/9lfwm9/ffQlALa7rYdd+M9FRkuuXuswNDk2XY84N6iODhy5t6Nmu7SSIhtsFLzgmCu5pKOOSVDzrusgzvCQx7X3aHaD8PPwTW/q79f9SNHln6vAnLBSAkIGkKndf2CsNHfT80Z11FLPXa0tD0OM9P5oqJZKhvXvd5osCAU5MVl1v+VmL65ihruel0O3YaxR1dy8XRWMOJs6bfXkn0LRm+8Hrrm/IYR+XOGlb+PsMlG5+j9lkkh7QFqLoPv6MK2cd5MZyM8errlutctcAvmSwyCdWoIS7gXjI2ufRwWBtKUeczg7M46uXjqU/Goe+ZEiqYyfRPUl7Ley8vMJWsKv8ZsmkdLJK4UWR//jdgJqSfBopQKd+gVL/YR/uEctYbDnm5VIuN2l5pXS0Hib7HOA3U9b8bp7DaFpJnG4VIAObzyZ8+ka6QnopwkTHa/j7dRHkYV0DWzgmETdeqGRZ/8mcdxUiKbaVZkZxv/jTxav6kNTFfTKbyky0q4medmN82zT4Wx7QaPjsKXOpEPHKlyiKKybwqUeSLMnjQCNuQ5nQOarptmNzTZ7KUr5UiutDMZCvAQxDYd8ttriQrBXosjhxtlVtLEwotqhqb+n100PfWFm9miPuGJ0tUICCaaac0zlxfmte+GaU6+LLKMggPWUmUmrwJrWTMzFoW+aToSxjqD56Gb+3ai21kJsLC2iinjtkSQ246CHNnXWd5GFGjZIlDtaMWpEDYdpUKEFWnKtJsJUyoOctExjmFWkfjUxZDppKONSgw1igllQFYmVRaLVIsHujY1SJnMjH6mAVt1gQbGKH8MimEQtYkS1/AZVg9BCddklTAUKPZElZzCJpBUjc8Iys/ESWyvJ6RnMN6B7vnH7mHmmk78gUCQGPVAl42Gyy5a8m+557AtfsQN7kS9UhfqjoYMiYFY7JWlRRrn88zoFEEltyEJjGKiT2MiDldWRwQeHhsaBso5OzF2C6UV2Kz4UCxEjcMMt8UvB4itojuMJpImm5SPUm/3oSkm2kEulFPlauhtVqlW6GNkkpHjziYqw2t6C6AWR/o7Q+Kli2pkhJqb7FGfyJZWVBE8elKK6IkZpiBKOCayx7nNaG2jQMMgHp0cKJ74VQIkVPXJ4ivVPS41RXHIIInwiCt+SJnO31KpnEC1qOGfAeAcfyo5sqQRUmXas6OAoGuLAPJP9UdCLPj0g6nsWFyQjztVHkeJmlp40YICfdIiSW8kThPVh6dw6Z8SeIZ6UiA1Jiv1UXoYLnOTZGLKYc0i04uRKgVNpEBZtjpBQcOjgocyVR4WcOhbyys9KCNKfsNsJu90hQhbo7QwKaIqnmbuSK1izn+xbcEh5MxqFh82tFoQLWaWhgtn0B4UqQ9tsRZSvVLGgCgtFbyWZWmXdC0odKMyp6IofRpMUbmgY0XP11tiTmFo8bOsEWgmNLsTlDkmHwnGH/myGUbHRE2iCT5uFDWCMaggfNnRQVmTPgbDHlxqEtjA6IqaYUuTxRdsjqqIVGRauZChU720MEzWajvtKyBsK1la8+y6huEiIPVLfAc7aRI7bRM9rSW06Iktc20TRA0bPT5ZC6XBTtV4R5KdnBUMa6mm5Ew1Jp9SqxNHM7pv1YXUh6hZovR0BOdavGRMJ9OMIsnDDZdr1hmj8IsboBGJYYkWcKkIqUD0wDKhGQRVdqYGd5xltMNCqJ0qZa7v2FJOdZhj2GmgiUc8cZhGpFGzA1imFCcKVi1d0XjLndNkvrCBz7a33NhlHjHBhVmOAwuYWqwWfsjH4l40sa1oBCgajbUN3pRlw1Uwx7QQWWFoahtUzFzwoBCjJUrGYEwhailLniB/PiFfbmvQPiOowNI2R33ygLNhzlMEQzuA60pvUPfeAIos/mylUFKMikdjUtQuk6bVNvDCZZS25fB6WHplNDei5iAySZOKIMJStOQywCMk6NGPL6p+WmsICemgP3CKsMc7yJ5tXFum/n0VcKgugC1KN2Rc3Fm9g1vdX0bmwCTsiMe6pSJ/cJTiPMuOPGqOs5MbuB2dq75+4DbLkbgpUoYkwBaMWzi7s4XvDm6MIriLnlkbUyuKMOD/Vhfnao9+Ymmswp3RrULi+pLoSMX0Yww/8Gu/P4cbzCOTs3Vq/VYvEb7ECsHPLxm8jV/VP0DintcWwQU8HsOT/QbzyLy010btUldPKsjwD7jZ2uewVzl+xZP9BvPIDO21s+xcV08qyPAvuDfS/LDmn+w3mEdmaP8vZtlLWLhPCwZP9hvMI/NfqH8FlXCDeWRWoj5DQW4wj8xK1GcoyA3mkVmJ+gwFucE8MitRn6EgN5hHZiXqMxTkBvPIrER9hvdy9elpMxeD272SFzzmdrp1Y/vsmAyruP23/Xn00EXzyPzT6u/g7dxm2D4FJcMabjtYxLaonfGY2zMxiRy/2t/u+nsZn8nVn+Cwe3Sv5Mv4TK4+Zv80bp8dE/EkN5hHZiXqMxTkBvPIrER9hrdz794rueBPq7+DgtxgHpmVqM9QkBvMI7MS9RkKcoN5ZFaiPkNBbjCPzErUZyjIDeaRWYn6DAW5wTwyK1GfoSA3mEdmJeozFOQG88isRH2GgtxgHpmVqM9QkBvMI7MS9RkKcoN5ZFaiPkNBbjCPzErUZyjIDeaRWYn6DAW5wTwyK1GfoSA3mEdmJeozFOQG88isRH2GgtxgHpmVqM9QkBvMI7MS9RkKcoN5ZFaiPkNBbjCPzErUZyjIDeaRWYn6DAW5wTwyK1Gf4d3cVu9Xsa/XjuaR+ZfV38N7ueNp0FvUD9t9Hhes4c7Umt4yuX1C4oI1XH0AhKK23b+2YA3Xam276y9gDVe1tt31F7GGq1qzu/4y88j8y+rv4d1c1dp211/Ek9xgHpmVqM9QkBvMI7MS9RkKcoN5ZFaiPsPbuWO6URKkPSAy/7T6OyjIDeaRWYn6DAW5wTwyK1GfoSA3mEdmJeozFOQG88isRH2GgtxgHpmVqM9QkBvMI7MS9RkKcoN5ZFaiPkNBbjCPzErUZyjIDeaRWYn6DAW5wTwyK1GfoSA3mEdmJeozFOQG88isRH2GgtxgHpmVqM9QkBvMI7MS9RkKcoN5ZFaiPkNBbjCPzErUZyjIDeaRWYn6DAW5wTwyK1GfoSA3mEdmJeozFOQG88isRH2GgtxgHpmVqM9QkBvMI7MS9RmKcLd7JQPWcrd7JSPWcnUn1nav5IK13O2uv4i13C1qEWu5+gzT7V7JBWu587DdK3nBam673St5wZPcYB6ZlajPUJAbzNMNbRtWIIXsCpxgX8b/G3fDhg1/F6c9z+YFvX20P+6/bcu/PMJ/30L/xeXyeErW/tbT3aiLmpe4896+suIlrsj2ad3Pc9nY++Yj7jXsa1Y5ldrbR6fe3tWnK+FOr47w27u4QnM8dLv+AFdfTepcts34Fe7ylZSvcLE2vMIFtvWI+wPjrhUPP1Yv9qqIPfE66AuK9QLJTdhTM7g+XONOjX3X3Svc5TteX+HqqbXwCpdU2+/H3Csc98Nu/MJWXvovWmz5k/z0VP8mFFzmc+COB57hvsid9nvyfHyJ2w770/hiv5avVf1egYolxEDfQQ4O2gpeUhVcI+UlFQncnvXBvnryBa6g739+qd/jtOu+deSVftMXaD7mXqHXl+AIHvudfXG1/Le9cuM7f4JjFJf9ALiUi30VwCtcwQbBkf5ZLstCr9XopX5tVbMj/fAr9wrUmltKNvkWVR61NPpXSNwEGvtv8uaFstSLjF/k2uoKi1X5OS6CIbzYr4029dv/xr2CVpTzPOck7rPe30bqL5DchLrD2lYj56rcta69wqVQX+/3gPWLXC0r6/rdsGHDhg0bNmzYsOGDsdv9B+uYIjJJ/Sb0AAAAAElFTkSuQmCC;" vertex="1" parent="1">
          <mxGeometry width="309" height="179" as="geometry" />
        </mxCell>
        <mxCell id="-l3vhbfFlr9UJ3xe28LL-2" value="" style="shape=image;verticalLabelPosition=bottom;labelBackgroundColor=default;verticalAlign=top;aspect=fixed;imageAspect=0;image=data:image/png,iVBORw0KGgoAAAANSUhEUgAAAT0AAAC1CAMAAAAa0diuAAAAAXNSR0IArs4c6QAAAARnQU1BAACxjwv8YQUAAAG/UExURf///8TExAAAAPb29mdnZ0dHR+zs7NjY2C8vL6SkpIKCgrq6urCwsM/Pz5mZmUZGRpqamnV1dVhYWMzMzL29vTk5OWhoaCYmJq2trY6Ojv7+/qCgoIGBgfLy8u7u7oODg+Xl5ebm5oeHh9nZ2Z+fn/Pz893d3Y2NjfHx8fz8/Ojo6PX19YCAgPf39/v7+9XV1ZWVlb+/v+Li4oWFhfT09OTk5P39/dzc3O/v7/j4+J6enrOzs9TU1IuLi8nJyYSEhOrq6oqKisvLy/n5+fDw8NHR0YyMjOfn576+vqmpqaampuHh4cbGxpSUlLi4uImJid/f35aWlrKystDQ0KioqNfX18XFxZOTk4+Pj7u7u7W1tfr6+rm5uba2tpGRkcHBwVdXV5ycnJubm+np6c7OzuPj49bW1oaGhpiYmMLCwqqqqq6ursrKysjIyKenp6WlpcPDw9ra2oiIiKOjo6ysrNPT06KiopKSkrGxsZCQkKurq8fHx5eXl7S0tO3t7c3NzZ2dna+vr3FxcXJycnZ2dsDAwOvr69vb22FhYX19fVlZWeDg4Le3t97e3tLS0mxsbHp6ejExMaGhoby8vAAAADJL/jMAAACVdFJOU/////////////////////////////////////////////////////////////////////////////////////////////////////////////////////////////////////////////////////////////////////////////////////////////////////8ANmQbOAAAAAlwSFlzAAAOwwAADsMBx2+oZAAAEOVJREFUeF7tnc2SqzyvhVMpxvSAQc8Yck/MesyQa+AG+o7Ps2ST2EF0SJ9q7/h7WbV3AkLLlmRZdv7oy4kTJ06cOHHixIkTl0t37eLRr/FTE00TD+pEd71+9PHYw7hxffhMJNNVmOKZj20TN/Rr9G5RHD5/tue90D2xtbuO8WhFJpk+B0l+Dt8PaBrrfvi8t/nMonfC+MTWbeJkkvab6F2W386/NffaxIpnFr0TbKSpTMv1qjTSzLl+2RUmJRLLtOW66OGq40ZTdUR+VRQt9y7zN43cmajoYBXQxPDZ2gWaEZGncDCG3Os/SN7+I1yoLvdGi0TDYY/9/Yec+NKFyTJt0sycObf6Hx4UNaQh95RB3SenCsbwCX3oeI4CNWE51lExddJ/zDDVzHK13BtpzSI40FqFuYfl2G8JQlSQhaTSpdGuhoVTyTNaNkYXTa3VQ4zPEA5AY3mHQOlrerQbRuZ20H9Y7ln01axQYe4pNH1DSoBFM3YtZeO1/ZQ4hEtSi+MUZh8ZBHTdUk/Z1X/rIBFY60rEvpniIJBroct7TvIQo1ZV7qlkxXEnW1SrOiWKskxYdzSzwmTHQZlz5ZZUJwlEFNrhO+TQ8B0FgUB7A7NcxU7obOqrSxpXUbCebC9kFlWCh9z7Ui4QkttGbLxOH1K5L6sxawgacqt7ysvbLtDKnT1HQSDQz0QTqnB3YVhz12zVCATNcFoBYt1TxWPTFarRrISKzjPVhk+yLOaKSUJymcjq2UWsOO0tg8NzzN5A6D/Gxp5ukQpdUvdCG4JV3grrHg5QwcMkasMZR31YczsVOa3Il4WQWkFrOdEmLay5Wj9JUqJBE6bNmhsEHIc0Wz40ScNS2yGdOegb1txYbkfklq8V5t7IZks5o03XHJKBXRvPljjdlVqkjZ7CoI0gSRrqYUzRxjSvYf+hiqel1AShdaQWVKDXdnakHWbHjmZ9naH9pBqrdM39Rwhrxh1V5V6y5v4TrKvMDTWtubYj+ae5l4N1t6LcM/zL3KsZ3YkfMGr967rm+jlxFkOWIBX9f2bv/yZX75mwjDV9x97BUU9F7+vFPv6WO9hOdGZjurAjM1GGVPS+Xuzjb7ksYWxkZ3a//HfUU9H7erGPP+d2X2f0XBzi9k2/sCFZzrr3gEPcsdGrch499VT01l7s4G+5ces+26Ojnore14t9FOQ6LyjSFv4DEcjwItdRT0VlLImfPCUo0+8WL3Id9VRUxhJWrweU6XeLF7mOeioqYkn/X4nedo7t47AlvfaeOQ5wd0053K+DF7mOeip6uBxeIj9FcOywJQOvGh/wnEvC7sRvw31hyA/bHOCop6KHy84c8xC0nluiz5HAMG9W/ufcYR5m35hHrl7OH8XzfjM46ndR+3gZk+PRT4huPbVkHYuu/Sl6t8zJU4iE3RnKx377bWrv4rimwVHvLm0wFO8eLneHohej4jSdBGBocStEbZxMnkYncvu2HdRYK4vyYHXzuGNM1+Y9D+36KUnagw/H5g16fQi92JccHPWum0LykGn3y2ZSEr0fLIla26YtEhHtTPRaJm97GUc1tmaiNRy5XCFGLZFuh4eaO01TNCa1RMfjnH+m1MVkODKFnXBs0H519lJ353Xu1LXB/Tm89UyW4IBsGG/Dar7GuvWIEL0+K0uddEeJWgKm9uaeNuli6cdxRhyrHy5ylbgKbT+2xG+cLlP3sDJPE2zL4NuQtL3FZ2Tw14ApnGFwwJrrAabCfz1hkZ2sWRoJLoaFQqOWms6LHp1NZiix0mWZt0wj/mGy9U/jHYHYq4Jh6iiGTLwgwi6YOrWQTQSkHQbyp+V56iYVp3bUKkoQycmQ/f2s02mG200PvbWjmtQYIO8sBMtgPdPqiNy0ZPsoWwW6tmcDnQzBNU5sWDmZGVq8WwfEC2LfYO9lZoj1PwoTEL1RQWqxwqKH2oyJnITomUkI4k5jbcKeecAvaU1Eg1knoQxneClADBepMBGecRpI8pncItPnvp+JJAFvO56gogmLVOCypqjyMfRmj3pvnLii2ZO+DAtSmhgnY4yEz0INiSFn6hsFbXs29C1OqmNFykZZA4h1COKy58z0Vl88Ue6RAPOwJnUKLOhwvydD8YF1d+5s1MgQJLSgVvGREyShe2B1iZN+CTEmiMSOSYSUgKDZDhqADo8Up5H6insL0WSSM1epT8gVrRBj88+SUc4gV9wIUXAJK7pJNYbexpGmlFpETQsNgbbod4uFVt0KVIhgqqBqKjMUX6a0or/QhUZpCKVnzQ7Zr4wEw9LZt+rapWlnqdvlDDZPZCdezhR6wqQkoD8GnOEzFobOxOeyjOpesLpkA2ez1EZS9YpdLTOCsIWcZpQVz5lqpzFCQWVqkCsD40GP8pFjkstCQJOyXDObJ1tCFLv5ssDpiRsknCO1MYlxajWAtI6QHFaecAKF6MV6bkVOQ0fZ0FjSqEVfyayc7ihZli5rGSSMIQ9DWOemb5vL8tUmi+oNdKGJJttm2hpIMfMTrxEu/YJJNsPktY2fDYxFUQPXzrJWaw/PVK1uGWYCokyleknV2sJta5VOmFyw8EmztFewsJaZbLaGUWe4CISlI50ORE4RnJRPwUnlH0ydhtYp7NQeRlsn1goDpQZDSsklqi5FEXfNrIGZr+Kk+U9qEHzGGzK5qyRXu2FWNeRPc/1mrXOihxukMmlGlxodhjH4qfpkKYFNuIthykUGyiavRU8DR7zoqMMbMo5B5FzZIaMJtgVEIHqhc9pheMbQhtV/LjJTZxOtsLXA0pGtSrBO22DyJOyG4zwn0a1VEokoY7nSitgodwgDEVX5RUHaVjplpOIuU1klqcoEVR5awVxUrZiEJDjWWI6qDqFOWLzoqW1KkBmj9Y7aHmoNbVIMKU30QF9ct3FCSvNWvSUlGzSS+qSdcWBAaUpNKsTKlhW2hkSocilsNgwCVxiNuzLt0avWYi2wQMuD8onx0JNO1ubsSSbJchsvW7sZkL5TncFtVktpq3Rqbiuosl07NA0g/7BINRtf4DK8HNEQAyJjbeujlL85cEcQhSQdaZ/CHDLGigh2qzSYOdrTaDemwo77EmCNpj3O9JaSJEaog+ZrSJOA4EAACRuOQyCCDetxgNKISMQmg3XgvoeLRq724/FErMg0O8EwomHlhHVLKSBtLFVLTAKVFkLV0aDWHdyhOzqNk4F+24niDEMp3GrJYx7cvbkhiAiMjsneWSVZIs1NOlci2+ByWeuTSoISzJKRPuUfFNoxw/HPmjIkEbmtnoCF83Zs2JrFZFXo1TM+21AJt2y1PZRh5WLcepWKR+5oCgcDeTmiMmtGMDEsq4ievTKViTjHpJHHuiwBUlvZtWuXIERja2YUqZrqWC+n4isss4UghTM90gJCsk+T2XYztlgp5+9eMNBOL8jXZKGd5NiwJdBV0kywTlB3hrhJu3P1YideVeG1HlgMZGDPnA7a1DpLKK0XyFYu67b1oGQJEkUPJdIpCqTg+BVEwRiO1Ws0Qk+MeqDrRHs8OlfOE0DtAch5XZPOrWmNkoOY0QKL0e3YsDWLEYyJJKTHEfo6tOHGjVYLNqbJ8+2iTSQ6pxgyq29crgbrbEYFhAIW1gMgE7ZmriKzz/EiC4XZwPixwWIGa2dinVqlu3EdV4Vk78quJVfZ9ksjN8+B0+R62XFpHwyKFSLKmGKz4d5KBKoW+nu1FiseJogiM2Z7Oc7iFNqkai7ZXjpIMkt23pG+JQuwTUSCbb9ruYmIHXlwXNoHli+quezxNYAbbpIsYYG6lVfB6SoVOV5so2eTHLm93omSbBx3XH0tAj9o53C4P8IKIi+a3OiF8hdg0+pWXgWnq1S0vZy/8RRgjlH/7pckedWLFOW52hg73O28SUfR6SoVOZf3c8C2Vnf8zouAf8H1R3zfXeB0lYr+hRdCJVxHPRVV4kWGglxHPRVV4kWGglxHPRVV4kWGglxHPRVV4kWGglxHPRVV4kWGglxHPRVV4kWGglxHPRVV4kWGglxHPRVV4kWGP+ba7UHio6Oeit7Yi138LXfo4s8Nzt+pbXCI2076TLxvzt8KPeAAd7F7SDFt+e+op6I39mIXf86dljN6Lg5xe6I32tvbjnoqemsvdvC33ImMW+zf+Tu1Rzzn9h/xd2p245AoTJCK3teLfRTkOuqpqBIvMhTkOuqpqBIvMvw5t7ebYxiiJEEqemsvdlCQ66inokq8yFCQ66inokq8yFCQ66inokq8yFCQ66inokq8yFCQ66inokq8yFCQ66inokq8yFCQ66inokq8yFCQ66inokq8yFCQ66inokq8yFCQ66inokq8yFCQ66inokq8yFCQ66inokq8yFCQ66inokq8yFCQ66inokq8yFCQ66inokq8yFCQ66inokq8yPC33L6xP6W0f0+M+Cz8rSX7eF9uN+gnK11j936MPxtKkbbwvxmBfRzirvcd7Tz1VPTWXuzgz7ntfH6XwMUR7rxY5M7obfCca/dROr+J4eI5N/wecZzPOwZv8ZyrP9ajW6Wfdwze4kWuo56KKvEiQ0Guo56KKvEiQ0Guo56KKvEiw59zz++x7OBFrqOeiirxIkNBrqOeiirxIkNBrqOeiirxIkNBrqOeiirxIkNBrqOeiirxIkNBrqOeiirxIkNBrqOeiirxIkNBrqOeiirxIkNBrqOeiirxIkNBrqOeiirxIkNBrqOeiirxIkNBrqOeiirxIkNBrqOeiirxIkNBrqOeiirxIkNBrqOeiirxIsNfcxfdku+8J4aD59zhc5kvdk+Mr/MTyQcc4Xb6NHy8XM57YjziCLcj987vEng4wh3Pb2Ls4AjXcu/8JoaDI1zl3vm3mz0c4Sr3zm9ieHiR66inokq8yFCQ66inokq8yFCQ66inokq8yPDn3CF+DQNESYJU9NZe7KAg11FPRZV4kaEg11FPRZV4kaEg11FPRZV4kaEg11FPRZV4kaEg11FPRZV4kaEg11FPRZV4kaEg11FPRZV4kaEg11FPRZV4kaEg11FPRZV4kaEg11FPRZV4kaEg11FPRZV4kaEg11FPRZV4kaEg11FPRZV4kaEg11FPRZV4kaEg11FPRZV4kaEI97wnhoOj3POvk3g4yj2/ieHhKPf8LoGHo1yL3nk/lgcc5S4ont/EeMRR7vlNDA+Hucv5TYwtXuQ66qmoEi8yFOQ66vFj8hMHEEO2AxbmX+O/xj1x4kS9+Lw2bGWAfhTTf8ez9M/Geui/KaFdxuX867fc8Wo3R/0VV+TWTl7mcnINp8+4exguk/oePnWTw7G39xO0sx6bPv5ExkH70YyXfsm4dG7Kr3Ltxzh2m7tfcnkVIPyGC+zsGXcXw2UJputHMaBR9PXCrhniGzMugkbGbdtZXf+GO1ni/Y6rl/DCb7gkpD0+5+7g47pchg/YI2PRf5C6w/cQ3pKJb8y4UE99xh2Wful/wdWX0icm0Ev9ztIO/c4z8+2X/TLk3bF+d0Am0yiIufdFw9bGz63FcZykbdyenF+Ue69y9YMIYBlxmIvTgvr9nphvHB/mpv32FsID3B30lyEUDo0j6FQHNEpLHx5NugHXxBtCCYZL+thNJl/mhhwIg/cC185Eolz0aukF7r1fq3pHuDtgHO/mc6QB0rHubx3emHGBWv+VcYE9EkkV4XCjUxc5N829V/vViCOxgX+Zq35jmXvO3UGsOCEC3TVWlPAHY8NPZFxonNCOXDMf81T3WPfFCo8ucm6se7/q10atQfs3XPq1pD3EPXHixIkTJ06cOPGfwuXyf48LEfLNibS7AAAAAElFTkSuQmCC;" vertex="1" parent="1">
          <mxGeometry x="309" y="-2" width="317" height="181" as="geometry" />
        </mxCell>
        <mxCell id="-l3vhbfFlr9UJ3xe28LL-3" value="" style="shape=image;verticalLabelPosition=bottom;labelBackgroundColor=default;verticalAlign=top;aspect=fixed;imageAspect=0;image=data:image/png,iVBORw0KGgoAAAANSUhEUgAAATsAAAC4CAMAAACrUbs3AAAAAXNSR0IArs4c6QAAAARnQU1BAACxjwv8YQUAAAGzUExURf///4KCggAAAC8vL9jY2KSkpEdHR+zs7MTExGdnZ/b29kZGRrCwsLq6us/Pz+Pj4+3t7XV1dZmZmczMzMXFxVJSUp2dnWhoaCYmJq2trY6OjqCgoP7+/vj4+ICAgPv7+/Ly8vn5+fX19f39/e7u7oGBgfDw8J+fn+Xl5cvLy/Pz81FRUfT09OTk5IODg+vr6+np6d/f34SEhMbGxtnZ2cfHx4WFhfz8/PHx8fr6+sLCwurq6oaGhtTU1OHh4YeHh4iIiN3d3ejo6OLi4ufn58DAwNra2omJibm5ub6+vtvb24qKiouLi5CQkL+/v4yMjNzc3Lu7u87OzsjIyL29va+vr7e3t9LS0ri4uJGRkdXV1ZycnKqqqpKSktHR0Y2NjbW1tcHBwebm5o+Pj7Ozs7a2tpSUlJeXl6ampsrKytDQ0JOTk7Gxsaurq5WVlZubm5iYmMPDw7S0tKioqJaWltbW1pqamqmpqaKioqOjo/f3956ensnJyaenp66urqWlpdfX17KysuDg4NPT06ysrM3Nze/v76Ghoby8vN7e3n5+fmNjYx4eHlVVVVZWVlhYWAAAANXToAwAAACRdFJOU////////////////////////////////////////////////////////////////////////////////////////////////////////////////////////////////////////////////////////////////////////////////////////////////wAy+WGbAAAACXBIWXMAAA7DAAAOwwHHb6hkAAARMklEQVR4Xu2dQXbjuA5FfZyRj0eSJlmAFiItQXNtKXv+94GSDJhKR0512GF9ve44FIhHECAISi6X63LixIkTJ06cOHHixIkT/y6G6/u4NP9FjO/z0sox3PulVS266xUn5tcjN75fwW252sc/xa5ZYreZ7u8/sn4/iM5caP45BnuwuPT3j+XyZax5dxvslzDe64rdZC4Mt5c3UMqp7tupsuRd997ZpVBb7JR3tv1ueDPb/uWiped2m67sIraSXWp3Xxs1btcr2bbE7jolSYohXGs06BKT8b293Cwz28WMXagxL3lnq7bQxre6YrfmnV6sek2EpMPx/nYdlhqky8sk2R3RjQCO3RK7lu7+Bk9lq79pMMSKi0jSSfUMkhFuhGq60rBl0qanrcCKVmPeqd7xOpiXBsUnBUJ+9vfGfri89ylmShKy0S5mbbv+3m5l32K9hmvR6wibulCxRhreYr+kpmL32L81wOXdevJd+jcykGzickpZM1ja2WV/TxGyjW6MjxSLYTtx0kBcKXaWle2NqCnmlLfUWJS0SOzwtBxdlWdFyjtrtoqI4mbZYGeBtqmqnTCRSHpdckquU+2Em+1mYUgC5Sg5N78xVptiDebxTSUyWUsrohFEra3epT37yLu0JUkly5fLZO4o71K2GaiCxE2KqTCudxlpM1rGJZhOf++UUNq2D+FibdO0WltdvSMrfN5ZrervyjvJtryzor5BtUx17DJApwgmqRU+sN24pDANzWzpuWRlqpz9HdYSRkHZWfE5a5nQv+koTfVO3RYGZdasoHbEzFJpyTteUX+T5o1zVvHoEds50KxncfduZ0CnqjaiaudPY7dDZrzXIigDaz5nranCNlm9C3knl1NVWu7/Ut5xxS9uAVOqrTd6KoHEK+lYSIFGVpRthE4rtaSiSqE66sy7/wbLSbGhzrz7b2CZ7VDd/d1yk/bfg7vK9Yw58bejO/EPmPQ+SNfdru8zV0vINnjBnxSbv5PbcUt/u0y3vqMyZ+pe8Ht9+Bw/zu1vPTequnvN1L3gx+fxCX41tx0uAycYP5m6F/xqHz7BT3MH7t5/Jnb2ZGH4aR8CHmb/2K4bag8f0hkmHrwO17s04t64UZYeqYRs4BfwMhdHVvyh3f7hwR5aPY7rIX7ikTEzhWALx6OzMaGbIpemFm31q0abDxyDHK5af0mzC4IDeIrdp+S8w0tauP3Qb7KdYT548OZ+fdDjg9QjOhcOfEggJgi3yFgzqY27saNPb2d6444MQsi58CPzaGPmPkXmU988Hj/kfzDlkXc4O3Z8dsTu4UQAZjXT7aqxd2w9iJ1KYWqvtpgczXGwN4dMMHTJhGw9MC5UZv/sw2NUIXYRqkcnPdPwufsg9GlGms0K2XWXEc5MgrfTq4zh8kZ/mgNkorAKG1OP6LYAsP5rYMahQ8jrGnWaSW1TMSBeflvsfN9jVCFccfHwFiqDytxnkMYG88W7wUBj7lVCHlS/okab2nEdLc7YuidmmoRMorHa56HYrRZQTY1uUBP2KhjbOY0yrxLDSsV188H1RYdCV0eotk71TA9DO/BJmtanHx5uyG6q6DlGp5fgx0qxG4hd0nILquQe2xZv10UlA7PBqHH8t7S3wHQtLNZELvUts+3osqHbVirrXu7aFIOp7aa2D8mzdnWiK1x2ZUzS7OGtemZit80bDTO5oG+3YSXmoh19sOB181paNqQJmt5WdwQXH4aid9ZoSeMRB0vukVFbjCchdofMCmtuXrZEZW67kQHacWpnhCmCltIT0Wk7ptHO9LfIMNi2iWqxwwzhWudB18zMRhE0B83LpqY6CiupjRqAvtnMYVeHFRrmlS08Is0v2dJMlLNtsqJVGbnrb5mcRsMDvapJeTJj6lVFa3v1QcNi6ufCFpBpK0jqS6uNnVGFnlF5nVlUOcE0dmM3z7jcD6KLP/cDL7D0ikDiy2QukIbErm81Dm3pyWVWD+1OjNbMMprImvvI7IexoesyKGf1Q6BmxFxMrYZtsAMZUmvscWYlNGGZoGueG5oMQ5dsqK1oYlz2GibXE0ienZQydEis6JOQ/UCoba7cZJB1W+zaAR9129uxp6xPcyRTzAkWiBVBxlwXdzsW4gkzsZvbobM1UI7QJOhIRWDa9LBsBI1OxRZbCkw/K8BKrkaLhH18gU4QiAm6ndYcESY0DktCLElDQqZQM0kuiboMaSTmySWTJnLMC1P6SXbT9KbZrtgM+tHWZgQ5hpqEF2LAYTCwVmkbU0hILq0Ev7hR0GLJG/5nzoykQSe0uIPTrLjWH2ShpY3XQZSP5pcNYQFz0HbROMRc08d5qWonMydetbpzN5PYtBlMtiwixEcyVe9GfYReM0PMT9rj6YoXOa+6g8ZEsih2omNThkg+mbNLsW0LypNkR4NrGF3JBilgJiyaFrsRikYjlkotrdWkJJkYjsNSa828FR8EpDD/a5covoP507GwsiOKTNsMR82QltiWNo9SuUA1jQHUQS0hbWkyO/7jeGi0eTg02PrqxG7HfBQ8+WTLqvLbNmwnK0WTVWNabCPVfzPIBNBRlilt8UERpDzqDNCwRDaZM4UUb2PqyoZNYeZFF0hnNWwKWg4iQbxozyObW8vC5tZ5TMDSKMhGJb6WW3OwFGAgnUQ0J2qenWBQ0nzRGUYMosmuljuMmsWOyaSVIF+xbLd7JtJ9Q3olkQcmSyQ5gAis4og2g9PPb2ypvugY51jmMGDiXCjR0rhpKCLCK7+0hOqg32xOsouODjdZsxsYjWPRRdRskWJYSgTJkY5CFSpi18MXk2xTohBJncYKhEagE4NsD9tTirJyftSoOjEIEMHTauAMqStDzFdHliJISDVrMjmPHW4zqE3l0ur2h6a2oR4t8M4eMKhNadYIVEk0T+nxW0ElDewwRptRFBENaKPbuISUsKpk0YFTdvBLLSnIhIUkXabRbZzUYhrWsBfZsCw0Pi/EShMexUyxmwgWSuQ5e1H2baLa0Ar/QPHG44FnTFVgbSIqOLvB4qCSSYs4EgNYqckgmMljx/D6ZVNJz12a0IXsMNnySkgH/Xk/A5ODtiHoUHRJIu2x9LBnoyQsTfulQdgcJiDKOGfRMSgYrJnTN38NqSWRuZTklj1qJHCBeXT4nxNLhQkatdLiJyk/GkiJT+woLgRRBUQnswo5KZgyWYGTPtroi6X9aE2Nre0csWUA8O0MS5cqm4VYIOxWTPmVDfwEQpYa1CJWM7UNeg/GlmXFYxKbWCILoEDNSg3BrC9QdVaVlbbdUG1LxEDaHlYEHuCA4PaMfKKmScfOW5ASRgYJ4jIb1mgndg9knTuwarR6x2/FTryvuJqiQaseXThkF6xWVfg2+ECq0Kk+C+Qg55M1E5Rbeey480VrmdzMTrWOBWstE/bz7oGscwdW2RxUWMX7iut9fMwo4YhdhxC7ZD2Biq7HCGuTg5N7tLPEWYrNBrYxd/q630tRnqY1y1ZsuS4/s2l6wREfnt+boO7b+F9xdQO64jGjhCN2HWLeuVRibhzZaWwd/1/FjiOXYwat5d0hqt9T7C5NQybq0+o3bqoW2QYvOOTD03tiqZp+zQ3b5c/yLtylLm4bKO52WArUVA7T1DYo4k8JT3SpcGgtMaVAhsKL5F1/1qPjVDcsi3CDFxzx4TlnmI5JvuL6JV9uYDYcsesQlmFy4WAm28jctsQHUMvWaFiPqDzw0koBJ29jQQJ6QNGNn26QF9EGLzjkw3NWL4fSV9wQr6cxDtl9IMRue3tWWOZi4K4umLHYRcN6i4Rat1wBnSdP0Pjj+/WdSppN0wte9CHgS26cdsCLdsMxrQepXTzLn85YIbO73Qw8YA/GqH7Y27sRXvCiDwEFuctNcsJh7vONEci4/mZgwZLX/UfzV3yWJ5yWh7lPZ6yQcdebQ4e/LO/CaXmY+3xTCTJu/FNAw1Lv7mz5XH35LbzoQ0BBbjh2DnOfD3eQcUM1iGDLZ+pe8KIPAQW54TbpOPdA3u3EdwVpm6l7wYs+BJTkfivvdg76nLtzaPfLJ0Dt/YIIL3jVB4+SXO9hMbt/Sd55lOLqzb6lucELavDhGcW4Z94FvMRtcnUvqMKHJxTj7nzE0Auq8OEJBbmZuhdU4kNAQW6m7gWV+BBQkJupe0ElPgQU5GbqXlCJDwEFuZm6F1TiQ0BBbqbuBZX4EFCQm6l7QSU+BBTkZupeUIkPAQW5mboXVOJDQEFupu4FlfgQUJCbqXtBJT4EFORm6l5QiQ8BBbmZuhdU4kNAQW6m7gWV+BBQkJupe0ElPgQU5GbqXlCJDwEFuZm6F1TiQ0BBbqbuBZX4EPDT3EZ/GNzYF1Vl6l7wm334DD/LHd/1mdnpduk+zu/lCTjC1Wd59PH05vxumYAj3I680yfLhi5X94Lf7MNn+GnupLxT7M68CzjCtbzTnj3rXcARrvJuGj79Xp4Nv9mHz/DTXOVd+j7hXN0LfrMPn6EgN1P3gkp8CCjIzdS9oBIfAn6cO6bPfQqLZIMX/GofPkFBbqbuBZX4EFCQm6l7QSU+BBTkZupeUIkPAQW5mboXVOJDQEFupu4FlfgQUJCbqXtBJT4EFORm6l5QiQ8BBbmZuhdU4kNAQW6m7gWV+BBQkJupe0ElPgQU5GbqXlCJDwEFuZm6F1TiQ0BBbqbuBZX4EFCQm6l7QSU+BBTkZupeUIkPAQW5mboXVOJDQEFupu4FlfgQUJCbqXtBJT4EFORm6l5QiQ8BBbmZuhdU4kNAQW6m7gWV+BBQkJupe0ElPgSU4Oo7K5sddS/47T7soQR3+aqjTN0LfrsPeyjB1XdWgkzdC367D3sowe3ez88bP+MF7vnvgD7hBW5/xi7iBe50xi7iKFffWXl+djHiRW6m7gWV+BBQkJupe0ElPgQU5GbqXlCJDwE/zj0/97mLF7mZuhdU4kNAQW6m7gWV+BBQkJupe0ElPgQU5GbqXlCJDwEFuZm6F1TiQ0BBbqbuBZX4EFCQm6l7QSU+BBTkZupeUIkPAQW5mboXVOJDQEFupu4FlfgQUJCbqXtBJT4EFORm6l5QiQ8BBbmZuhdU4kNAQW6m7gWV+BBQkJupe0ElPgQU5GbqXlCJDwEFuZm6F1TiQ0BBbqbuBZX4EFCQm6l7QSU+BBTkZupeUIkPAQW5mboXVOJDQEFupu4FlfgQUITbXN/RzdS9oMg8dvDbufrOyvOzPBFHufr+u9v53YEBR7nn9y7mOMo9v+8zx1Fug+L5dwQijnK75vzc5zMOc8/vrMzwIjdT94JKfAgoyM3Ul4/lnTiAJWS74Cj+Nv7fuCdOnKgP71fu+gT9AyH923KV/qGQ9LqH/o3C2QUu1x/f5U7X65Xn7W9xRW7t4mUuF9d0+RV3H+NlluXxfZAPvb1nkP6hkPSaDD2hvd+mS98ELqZN+VWu/cMkc+r7FveW+l7lDukvxdrVV9xPMF6aNHH70nd7r4UodLKSXk2agUdjqXpu2w4y/DKXuM+WdN/j6kFdeJWrfyCAZEyr/iV3F/drcxnvymZG6e8k7fg2pjddlrdedtHgbX+/Dg/u2PRN/x0ucZ/ZOt+yC3cY2Gnf5LLg3TG7uyCHGQhMKe8+dPX1WKyh1gjTAtyebG+Udy9zbeVTNnyD27/Nl07b9mWu/O2T019zd9FfxlQ8lTv6ZT6wQk2//HMhu2ANR2b84JI6Vyu1L3PT9M38d7gUCq3bd+a8VLsj3F2wDmnyyp2W3NGqMC5ryarqbfpdaA0/PFew6NOm6KbXfTxxXd69bBcuE7YwfGvOVt2PcHexVJq0Dp2+B0RXw/WNQdLrLlQ70HZcCVXvOOn1hk163cUTFx9IWqrQN+ya/1j6Dpc562+yH7N74sSJEydOnDhx4sSJHJfL/wAMXaKAw0paFAAAAABJRU5ErkJggg==;" vertex="1" parent="1">
          <mxGeometry y="179" width="315" height="184" as="geometry" />
        </mxCell>
        <mxCell id="-l3vhbfFlr9UJ3xe28LL-4" value="" style="shape=image;verticalLabelPosition=bottom;labelBackgroundColor=default;verticalAlign=top;aspect=fixed;imageAspect=0;image=data:image/png,iVBORw0KGgoAAAANSUhEUgAAAT4AAACzCAMAAAAnv4CwAAAAAXNSR0IArs4c6QAAAARnQU1BAACxjwv8YQUAAAByUExURf////b29mdnZ4KCgkdHR+zs7KSkpNnZ2QAAANjY2C8vL8TExM/Pz7CwsHV1dePj45mZmbq6uszMzJOTk0tLS4iIiCkpKaampvHx8Y6OjuLi4pycnNTU1KqqqsbGxri4uPDw8KCgoOXl5VhYWEZGRgAAAMfuLFoAAAAmdFJOU/////////////////////////////////////////////////8Ap3qBvAAAAAlwSFlzAAAOwwAADsMBx2+oZAAACHVJREFUeF7tnVGPqkoQhA0JgfhAkATffJL//xtv94ButdZkkb107MN8J8eVskq2xnFEo+upUCgUCjmqajlT2ED9PnwjKuNUL+deuWUvORJV9ToKRumyg5S/5EC8zz6r5Gdf/pJ/jnFqprZNw3Jr2/amZ2pRunmuNddrI+faVn4Mcnl7Tz4Vn4Ok9jkovkoisnmUAey0aXOV0brICAztoCd6rtG5Vk86DncZ3VsaRh3mXiVxPO6izVU20jXcRzkjV3Ck2afDchrOeipUnQyZjEQ6f6+rNFRqqade77yy+bgHPwZp3r6dm+bcJ+FIa99ctbnKpJExOqc7Xzqvk65LA5fGp65kauk0lPk6j9IySINOvnQN9ZRuimPNvmX4el3SJp1fwzIIupKlkZGfisy8+ZFXtnV+LoPUXC/ph0y95ty2unGg2fcYviEtYXpPvOj6J8hQ9jp+ad7NpNknjPpYswxSc37MPjmVRxHZOtDsS/dPPdAddOLU0x3WvkrGScSfo+DncZ9Kj0GaxYdJFs8jDV+aSBeZM/U0ykTTrdvzkbc+3eUxpZ500lUyzDrhal35up/Zl8Iy+W6nRqfqJCf94+7/7zNOerinQ6KHdZc0lfScTKJKjvFkoZNHXDmwSyMiZ+bjOnWNuiDqcWA60NM173ngWB3nuO84d7Q9ONA6tQdl9v2JMvv+wnAExn7zv2nqx1EeGuVHelB8YXl+lsDzn/LV2edhv+X3bHMdJVvPx8HMjtruNTLsnW2WVzJeWZMdZOiWPLOjtneNHHtn9XCesSZ70dfgrumol9lR27tGjr2zQ3pN451V2eWOK8+ymB21vWvk2Dt7y5jWZId53azvNbWjtubqcnxz9i/Ddymzr88c2a7J6uyTte8sV8HsqO1dI8fe2fEPwwcw+63/YVx+buGrs0vXV/6H4UPtw6szHCDL7KgFqWFwzDI7akFqGByzzI5akBoGxyyzoxakhsExy+yoBalhcMwyO2pBahgcs8yOWpAaBscss6MWpIbBMcvsqAWpYXDMMjtqQWoYHLPMjlqQGgbHLLOjFqSGwTHL7KgFqWFwzDI7akFqGByzzI5akBoGxyyzoxakhsExy+yoBalhcMwyO2pBahgcs8yOWpAaBscss6MWpIbBMcvsqAWpYXDMMjtqQWoYHLPMjlqQGgbHLLOjFqSGwTHL7KgFqWHYO9vpW4S6Vj9xxuyo7f2r5Pje7JDenHupDv0Oqxxrsvr2yE6M1UDtqO39q+T45qwO39ik/8yO2jfXyLF3Vt/bXIaPsiabZp8Yu+O+OTfHmqzOPhlCefSgdtS+uUaOvbPpnfXpr41QO2rfXCOHY5bZUQtSw+CYZXbUgtQw7J6tl48VCouCoPbVNTI4ZpkdtSA1DI5ZZkctSA2DY5bZUQtSw+CYZXbUgtQwOGaZHbUgNQyOWWZHLUgNg2OW2VELUsPgmGV21ILUMDhmmR21IDUMjllmRy1IDYNjltlRC1LD4JhldtSC1DA4ZpkdtSA1DI5ZZkctSA2DY5bZUQtSw+CYZXbUgtQwOGaZHbUgNQyOWWZHLUgNg2OW2VELUsPgmGV21ILUMDhmmR21IDUMjllmRy1IDYNjltlRC1LD4JhldtSC1DA4ZpkdtSA1DI5ZZkctSA2DY5bZUQtSw+CYZXbUgtQwOGaZHbUgNQyOWWZHLUgNg2OW2VELUsPgmGV21ILUMDhmmR21IDUMjllmRy1IDYNHtj6nb75idtS+vQbDI1vPf7ee2VH79hoMj2xTho+xNnvw7+vI8UF2qMpn2l75IFuX4Xvjg2z5SOA7a7Oy9pWPBL7zYZbZUQtSw+CYZXbUgtQwOGaZHbUgNQy7Z5vl45TCoiCofXWNDI5ZZkctSA2DY5bZUQtSw+CYZXbUgtQwOGaZHbUgNQyOWWZHLUgNg2OW2VELUsPgmGV21ILUMDhmmR21IDUMjllmRy1IDYNjltlRC1LD4JhldtSC1DA4ZpkdtSA1DI5ZZkctSA2DY5bZUQtSw+CYZXbUgtQwOGaZHbUgNQyOWWZHLUgNg2OW2VELUsPgmGV21ILUMDhmmR21IDUMjllmRy1IDYNjltlRC1LD4JhldtSC1DA4ZpkdtSA1DI5ZZkctSA2DY5bZUQtSw+CYZXbUgtQwOGaZHbUgNQyOWWZHLUgNg2OW2VELUsPgmGV21ILUMDhmmR21IDUMjllmRy1IDYNLtnxLIGNttnxLIGVtdryUbwkkrM2Wr7mjrM2W4aOszepXfJZvCXxjbbZ8SyBldXYsHwkkfJhldtSC1DA4Zpl9+bhWYQXLkOWQx+fNHC1bKBRic20rOaQRui79saZ5q0t/92U+ZdRnWUcHk5Xt+9bspW1beVq+KavhPm18nG2ust+0+Vs2S3O66c6b6zjKb1KnVxfSKzT3+XWaeV8v9FMlts5kZTuZt2SH23zZlqy4E1uyKuuuf8vmaU7d/Lvrd5gLlY6/PMmru2Y+Teob43zZI6uzoO/leeGGrOy319tM2JLV5/PKlqxMyXT6ezbH1I6n5iwh/Q7zepLZ20zN/BLD8kIDpZPCdcpOepeQX6Lp6rHekpX93uQ+tGm/kh1HucttzMqeL6dhTTZHc+rluoTH7NOt369ObkmdqLJ3RbL6V4rS7NuQVdKc2JCtp5vc5fSSz7MymmkMV2TzNPPiMd8ap0FXBpnGp24+zawFcks2EvjJygRq5/X38+zzx5asOGt9zNq037TyrcnmGE63+ebXq+tlBsl16Hm5ReX2eazLb+g6cn9mHzNI9701q0W2ZOUXTlexab/LUvd7Nkfb3ue1T69u0D8yKevI8gpNl04puo6Ie8nK7pW09m3JytTVFWnbfitxz9nzp1ldcdbtt1AoFAqFQqFQKBTcOJ3+AxVe0UvBz/WTAAAAAElFTkSuQmCC;" vertex="1" parent="1">
          <mxGeometry x="308" y="184" width="318" height="179" as="geometry" />
        </mxCell>
      </root>
    </mxGraphModel>
  </diagram>
</mxfile>
